<?xml version="1.0" encoding="UTF-8" standalone="no"?>
<svg
   xmlns:dc="http://purl.org/dc/elements/1.1/"
   xmlns:cc="http://creativecommons.org/ns#"
   xmlns:rdf="http://www.w3.org/1999/02/22-rdf-syntax-ns#"
   xmlns:svg="http://www.w3.org/2000/svg"
   xmlns="http://www.w3.org/2000/svg"
   xmlns:sodipodi="http://sodipodi.sourceforge.net/DTD/sodipodi-0.dtd"
   xmlns:inkscape="http://www.inkscape.org/namespaces/inkscape"
   viewBox="0 -256 1792 1792"
   id="svg4315"
   version="1.1"
   inkscape:version="0.48.3.1 r9886"
   width="100%"
   height="100%"
   sodipodi:docname="tag_font_awesome.svg">
  <metadata
     id="metadata4325">
    <rdf:RDF>
      <cc:Work
         rdf:about="">
        <dc:format>image/svg+xml</dc:format>
        <dc:type
           rdf:resource="http://purl.org/dc/dcmitype/StillImage" />
      </cc:Work>
    </rdf:RDF>
  </metadata>
  <defs
     id="defs4323" />
  <sodipodi:namedview
     pagecolor="#ffffff"
     bordercolor="#666666"
     borderopacity="1"
     objecttolerance="10"
     gridtolerance="10"
     guidetolerance="10"
     inkscape:pageopacity="0"
     inkscape:pageshadow="2"
     inkscape:window-width="640"
     inkscape:window-height="480"
     id="namedview4321"
     showgrid="false"
     inkscape:zoom="0.13169643"
     inkscape:cx="896"
     inkscape:cy="896"
     inkscape:window-x="0"
     inkscape:window-y="25"
     inkscape:window-maximized="0"
     inkscape:current-layer="svg4315" />
  <g
     transform="matrix(1,0,0,-1,129.08475,1285.4237)"
     id="g4317">
    <path
       d="m 448,1088 q 0,53 -37.5,90.5 Q 373,1216 320,1216 267,1216 229.5,1178.5 192,1141 192,1088 192,1035 229.5,997.5 267,960 320,960 q 53,0 90.5,37.5 Q 448,1035 448,1088 z M 1515,512 q 0,-53 -37,-90 L 987,-70 q -39,-37 -91,-37 -53,0 -90,37 L 91,646 Q 53,683 26.5,747 0,811 0,864 v 416 q 0,52 38,90 38,38 90,38 h 416 q 53,0 117,-26.5 64,-26.5 102,-64.5 l 715,-714 q 37,-39 37,-91 z"
       id="path4319"
       inkscape:connector-curvature="0"
       style="fill:currentColor" />
  </g>
</svg>
