<?xml version="1.0" encoding="UTF-8" standalone="no"?>
<svg
   xmlns:dc="http://purl.org/dc/elements/1.1/"
   xmlns:cc="http://creativecommons.org/ns#"
   xmlns:rdf="http://www.w3.org/1999/02/22-rdf-syntax-ns#"
   xmlns:svg="http://www.w3.org/2000/svg"
   xmlns="http://www.w3.org/2000/svg"
   xmlns:sodipodi="http://sodipodi.sourceforge.net/DTD/sodipodi-0.dtd"
   xmlns:inkscape="http://www.inkscape.org/namespaces/inkscape"
   fill="#000000"
   height="24"
   viewBox="0 0 24 24"
   width="24"
   id="svg2"
   version="1.1"
   inkscape:version="0.48.4 r9939"
   sodipodi:docname="mood.svg">
  <metadata
     id="metadata12">
    <rdf:RDF>
      <cc:Work
         rdf:about="">
        <dc:format>image/svg+xml</dc:format>
        <dc:type
           rdf:resource="http://purl.org/dc/dcmitype/StillImage" />
      </cc:Work>
    </rdf:RDF>
  </metadata>
  <defs
     id="defs10" />
  <sodipodi:namedview
     pagecolor="#ffffff"
     bordercolor="#666666"
     borderopacity="1"
     objecttolerance="10"
     gridtolerance="10"
     guidetolerance="10"
     inkscape:pageopacity="0"
     inkscape:pageshadow="2"
     inkscape:window-width="1920"
     inkscape:window-height="1013"
     id="namedview8"
     showgrid="false"
     inkscape:zoom="111.25147"
     inkscape:cx="3.6102635"
     inkscape:cy="5.4056566"
     inkscape:window-x="0"
     inkscape:window-y="0"
     inkscape:window-maximized="1"
     inkscape:current-layer="XMLID_1_" />
  <g
     id="XMLID_1_">
    <path
       style="font-size:medium;font-style:normal;font-variant:normal;font-weight:normal;font-stretch:normal;text-indent:0;text-align:start;text-decoration:none;line-height:normal;letter-spacing:normal;word-spacing:normal;text-transform:none;direction:ltr;block-progression:tb;writing-mode:lr-tb;text-anchor:start;baseline-shift:baseline;color:#000000;fill-opacity:1;stroke:none;marker:none;visibility:visible;display:inline;overflow:visible;enable-background:accumulate;font-family:Sans;-inkscape-font-specification:Sans"
       d="M 11.60448,2.4538269 C 10.759228,2.6291641 10.184968,3.0505958 9.8099323,3.4459747 9.4348963,3.8413536 9.1780054,4.2222913 8.8258253,4.5243963 8.3554475,4.9278928 7.8057172,5.2298672 7.2628318,5.6243863 6.7199464,6.0189054 6.2077578,6.5262279 5.9603372,7.2420187 5.7414856,7.8751588 5.9488504,8.4415059 6.2208361,8.8812195 c 0.2719857,0.4397136 0.5775404,0.8079367 0.7525525,1.1862635 0.2337489,0.5053 0.3049917,1.005324 0.4920535,1.552927 0.1870617,0.547603 0.5074902,1.143204 1.2156616,1.66077 0.6264004,0.457802 1.4080253,0.602718 2.0550473,0.647052 0.647021,0.04434 1.209467,0.03162 1.736659,0.107843 0.704127,0.101803 1.3251,0.299853 2.055047,0.452937 0.729947,0.153084 1.591509,0.241363 2.547101,0.04314 0.845252,-0.175338 1.419512,-0.59677 1.794548,-0.992148 0.375036,-0.395379 0.631927,-0.776317 0.984107,-1.078422 0.470378,-0.403496 1.020108,-0.705471 1.562993,-1.09999 C 21.959491,10.96707 22.47168,10.459747 22.719101,9.7439567 22.937952,9.1108166 22.730588,8.5444695 22.458602,8.104756 22.186616,7.6650424 21.881061,7.2968192 21.706049,6.9184922 21.472301,6.4131923 21.401058,5.9131681 21.213996,5.3655651 21.026934,4.8179622 20.706506,4.2223607 19.998334,3.7047959 19.371934,3.2469931 18.590309,3.1020777 17.943287,3.057743 17.296266,3.0134083 16.73382,3.0261228 16.206628,2.9499008 15.502501,2.8480975 14.881528,2.6500476 14.151581,2.4969637 13.421634,2.3438799 12.560072,2.2556009 11.60448,2.4538269 z"
       id="path2990"
       inkscape:connector-curvature="0"
       sodipodi:nodetypes="sssssssssssssssssssssssss" />
    <path
       style="font-size:medium;font-style:normal;font-variant:normal;font-weight:normal;font-stretch:normal;text-indent:0;text-align:start;text-decoration:none;line-height:normal;letter-spacing:normal;word-spacing:normal;text-transform:none;direction:ltr;block-progression:tb;writing-mode:lr-tb;text-anchor:start;baseline-shift:baseline;color:#000000;fill-opacity:1;stroke:none;marker:none;visibility:visible;display:inline;overflow:visible;enable-background:accumulate;font-family:Sans;-inkscape-font-specification:Sans"
       d="m 11.66545,15.517255 c -0.316994,-0.06175 -0.601266,-0.02433 -0.837785,0.03847 -0.236519,0.0628 -0.431149,0.138381 -0.638312,0.192334 -0.152906,0.03982 -0.3186888,0.06222 -0.5266071,0.1154 -0.2079183,0.05318 -0.4598073,0.164451 -0.6542697,0.376974 -0.179355,0.196012 -0.260855,0.40124 -0.3271349,0.60008 -0.012787,0.03836 -0.053828,0.07838 -0.063831,0.1154 -0.061854,0.228901 -0.088498,0.43089 -0.1436202,0.630854 -0.040686,0.147593 -0.1113664,0.299856 -0.1675568,0.500067 -0.05619,0.20021 -0.077693,0.462223 0.015958,0.730867 0.1030381,0.295573 0.2801322,0.518606 0.4547972,0.684707 0.174665,0.1661 0.3426513,0.292509 0.4946917,0.43852 0.112221,0.10777 0.2073227,0.237641 0.3590505,0.384667 0.1517278,0.147026 0.3821143,0.305466 0.6702273,0.361587 0.316994,0.06175 0.601265,0.02433 0.837784,-0.03847 0.236519,-0.0628 0.431149,-0.146074 0.638312,-0.200027 0.152907,-0.03982 0.318689,-0.05452 0.526607,-0.107706 0.207919,-0.05318 0.459808,-0.164451 0.65427,-0.376974 0.213956,-0.233826 0.329112,-0.494273 0.390966,-0.723174 0.06185,-0.228901 0.0885,-0.423196 0.14362,-0.62316 0.04069,-0.147593 0.111367,-0.299857 0.167557,-0.500067 0.05619,-0.20021 0.07769,-0.469917 -0.01596,-0.73856 -0.103039,-0.295573 -0.280133,-0.510914 -0.454798,-0.677014 -0.151222,-0.143807 -0.29593,-0.255218 -0.43086,-0.376974 l -0.06383,-0.06155 C 12.582507,16.155738 12.487405,16.025868 12.335677,15.878842 12.183949,15.731816 11.953562,15.573376 11.66545,15.517255 z"
       id="path2990-1"
       inkscape:connector-curvature="0"
       sodipodi:nodetypes="sscssscssssssssccsccsssccss" />
    <path
       style="font-size:medium;font-style:normal;font-variant:normal;font-weight:normal;font-stretch:normal;text-indent:0;text-align:start;text-decoration:none;line-height:normal;letter-spacing:normal;word-spacing:normal;text-transform:none;direction:ltr;block-progression:tb;writing-mode:lr-tb;text-anchor:start;baseline-shift:baseline;color:#000000;fill-opacity:1;marker:none;visibility:visible;display:inline;overflow:visible;enable-background:accumulate;font-family:Sans;-inkscape-font-specification:Sans"
       d="m 5.6312267,19.238975 c -0.1033199,0.0057 -0.2020645,0.01845 -0.28422,0.03656 -0.164311,0.03621 -0.2812474,0.07974 -0.4009532,0.105616 -0.082497,0.01783 -0.1908991,0.0252 -0.3400489,0.05687 -0.1491498,0.03167 -0.3447377,0.105795 -0.4923097,0.239668 -0.1057417,0.09593 -0.1693515,0.197237 -0.2182403,0.296538 -0.022827,0.04637 -0.052302,0.09204 -0.06598,0.134051 -0.04297,0.131998 -0.059505,0.237185 -0.091356,0.333098 -0.021951,0.0661 -0.061199,0.144824 -0.1015071,0.26404 -0.040308,0.119217 -0.065993,0.293862 0.00508,0.463087 0.074701,0.177874 0.2085575,0.314495 0.3298982,0.410278 0.1213407,0.09578 0.226818,0.157448 0.3146722,0.227482 0.060546,0.04826 0.1246248,0.119623 0.2334664,0.20717 0.1088417,0.08755 0.2838199,0.188067 0.5024604,0.223419 0.2298156,0.03716 0.4498072,0.0159 0.6141182,-0.02031 0.164311,-0.03621 0.2812475,-0.07974 0.4009532,-0.105616 0.082497,-0.01784 0.1908992,-0.0252 0.3400489,-0.05687 0.1491498,-0.03167 0.3447378,-0.105795 0.4923097,-0.239668 0.1551146,-0.140715 0.2412497,-0.302654 0.28422,-0.434652 0.04297,-0.131997 0.05443,-0.233123 0.086281,-0.329035 0.021951,-0.0661 0.066274,-0.144824 0.1065825,-0.26404 0.040308,-0.119217 0.060918,-0.293863 -0.010151,-0.463087 C 7.2618458,20.145699 7.1330646,20.009078 7.0117239,19.913294 6.8903832,19.817511 6.7849059,19.755847 6.6970517,19.685813 6.6365059,19.637549 6.572427,19.56619 6.4635853,19.478643 6.3547437,19.391095 6.1797654,19.290576 5.961125,19.255224 5.8462172,19.236645 5.7345467,19.233298 5.6312267,19.238975 z"
       id="path2990-1-6"
       inkscape:connector-curvature="0"
       sodipodi:nodetypes="cccscccssccccsscssssscssssc" />
  </g>
</svg>
