<?xml version="1.0" encoding="utf-8"?><svg xmlns="http://www.w3.org/2000/svg" xmlns:xlink="http://www.w3.org/1999/xlink"><symbol viewBox="-200 -200 1040 912" id="acquisition" xmlns="http://www.w3.org/2000/svg"><path d="M204.8 230.4c-10.6-14.1-30.7-17-44.8-6.4-14.1 10.6-17 30.7-6.4 44.8l38.1 50.8c4.8 6.4 4.1 15.3-1.5 20.9l-12.8 12.8c-6.7 6.7-17.6 6.2-23.6-1.1L64 244.4V96c0-17.7-14.3-32-32-32S0 78.3 0 96v218.4c0 10.9 3.7 21.5 10.5 30l104.1 134.3c5 6.5 8.4 13.9 10.4 21.7 1.8 6.9 8.1 11.6 15.3 11.6H272c8.8 0 16-7.2 16-16V384c0-27.7-9-54.6-25.6-76.8l-57.6-76.8zM608 64c-17.7 0-32 14.3-32 32v148.4l-89.8 107.8c-6 7.2-17 7.7-23.6 1.1l-12.8-12.8c-5.6-5.6-6.3-14.5-1.5-20.9l38.1-50.8c10.6-14.1 7.7-34.2-6.4-44.8-14.1-10.6-34.2-7.7-44.8 6.4l-57.6 76.8C361 329.4 352 356.3 352 384v112c0 8.8 7.2 16 16 16h131.7c7.1 0 13.5-4.7 15.3-11.6 2-7.8 5.4-15.2 10.4-21.7l104.1-134.3c6.8-8.5 10.5-19.1 10.5-30V96c0-17.7-14.3-32-32-32z"/></symbol><symbol viewBox="-180 -180 936 872" id="article" xmlns="http://www.w3.org/2000/svg"><path d="M552 64H112c-20.858 0-38.643 13.377-45.248 32H24c-13.255 0-24 10.745-24 24v272c0 30.928 25.072 56 56 56h496c13.255 0 24-10.745 24-24V88c0-13.255-10.745-24-24-24zM48 392V144h16v248c0 4.411-3.589 8-8 8s-8-3.589-8-8zm480 8H111.422c.374-2.614.578-5.283.578-8V112h416v288zM172 280h136c6.627 0 12-5.373 12-12v-96c0-6.627-5.373-12-12-12H172c-6.627 0-12 5.373-12 12v96c0 6.627 5.373 12 12 12zm28-80h80v40h-80v-40zm-40 140v-24c0-6.627 5.373-12 12-12h136c6.627 0 12 5.373 12 12v24c0 6.627-5.373 12-12 12H172c-6.627 0-12-5.373-12-12zm192 0v-24c0-6.627 5.373-12 12-12h104c6.627 0 12 5.373 12 12v24c0 6.627-5.373 12-12 12H364c-6.627 0-12-5.373-12-12zm0-144v-24c0-6.627 5.373-12 12-12h104c6.627 0 12 5.373 12 12v24c0 6.627-5.373 12-12 12H364c-6.627 0-12-5.373-12-12zm0 72v-24c0-6.627 5.373-12 12-12h104c6.627 0 12 5.373 12 12v24c0 6.627-5.373 12-12 12H364c-6.627 0-12-5.373-12-12z"/></symbol><symbol viewBox="-180 -180 936 872" id="audio" xmlns="http://www.w3.org/2000/svg"><path d="M256 88.017v335.964c0 21.438-25.943 31.998-40.971 16.971L126.059 352H24c-13.255 0-24-10.745-24-24V184c0-13.255 10.745-24 24-24h102.059l88.971-88.954c15.01-15.01 40.97-4.49 40.97 16.971zm182.056-77.876C422.982.92 403.283 5.668 394.061 20.745c-9.221 15.077-4.473 34.774 10.604 43.995C468.967 104.063 512 174.983 512 256c0 73.431-36.077 142.292-96.507 184.206-14.522 10.072-18.129 30.01-8.057 44.532 10.076 14.528 30.016 18.126 44.531 8.057C529.633 438.927 576 350.406 576 256c0-103.244-54.579-194.877-137.944-245.859zM480 256c0-68.547-36.15-129.777-91.957-163.901-15.076-9.22-34.774-4.471-43.994 10.607-9.22 15.078-4.471 34.774 10.607 43.994C393.067 170.188 416 211.048 416 256c0 41.964-20.62 81.319-55.158 105.276-14.521 10.073-18.128 30.01-8.056 44.532 6.216 8.96 16.185 13.765 26.322 13.765a31.862 31.862 0 0 0 18.21-5.709C449.091 377.953 480 318.938 480 256zm-96 0c0-33.717-17.186-64.35-45.972-81.944-15.079-9.214-34.775-4.463-43.992 10.616s-4.464 34.775 10.615 43.992C314.263 234.538 320 244.757 320 256a32.056 32.056 0 0 1-13.802 26.332c-14.524 10.069-18.136 30.006-8.067 44.53 10.07 14.525 30.008 18.136 44.53 8.067C368.546 316.983 384 287.478 384 256z"/></symbol><symbol viewBox="-160 -160 704 832" id="bookmark" xmlns="http://www.w3.org/2000/svg"><path d="M0 512V48C0 21.49 21.49 0 48 0h288c26.51 0 48 21.49 48 48v464L192 400 0 512z"/></symbol><symbol viewBox="-160 -160 640 832" id="checkin" xmlns="http://www.w3.org/2000/svg"><path d="M192 300.813v172.82l-22.015 33.023c-4.75 7.125-15.219 7.125-19.969 0L128 473.633v-172.82a162.221 162.221 0 0 0 64 0zM160 0c79.529 0 144 64.471 144 144s-64.471 144-144 144S16 223.529 16 144 80.471 0 160 0M80 136c0-39.701 32.299-72 72-72a8 8 0 0 0 0-16c-48.523 0-88 39.477-88 88a8 8 0 0 0 16 0z"/></symbol><symbol viewBox="-200 -200 1040 912" id="drink" xmlns="http://www.w3.org/2000/svg"><path d="M192 384h192c53 0 96-43 96-96h32c70.6 0 128-57.4 128-128S582.6 32 512 32H120c-13.3 0-24 10.7-24 24v232c0 53 43 96 96 96zM512 96c35.3 0 64 28.7 64 64s-28.7 64-64 64h-32V96h32zm47.7 384H48.3c-47.6 0-61-64-36-64h583.3c25 0 11.8 64-35.9 64z"/></symbol><symbol viewBox="-160 -160 736 832" id="eat" xmlns="http://www.w3.org/2000/svg"><path d="M207.9 15.2c.8 4.7 16.1 94.5 16.1 128.8 0 52.3-27.8 89.6-68.9 104.6L168 486.7c.7 13.7-10.2 25.3-24 25.3H80c-13.7 0-24.7-11.5-24-25.3l12.9-238.1C27.7 233.6 0 196.2 0 144 0 109.6 15.3 19.9 16.1 15.2 19.3-5.1 61.4-5.4 64 16.3v141.2c1.3 3.4 15.1 3.2 16 0 1.4-25.3 7.9-139.2 8-141.8 3.3-20.8 44.7-20.8 47.9 0 .2 2.7 6.6 116.5 8 141.8.9 3.2 14.8 3.4 16 0V16.3c2.6-21.6 44.8-21.4 48-1.1zm119.2 285.7l-15 185.1c-1.2 14 9.9 26 23.9 26h56c13.3 0 24-10.7 24-24V24c0-13.2-10.7-24-24-24-82.5 0-221.4 178.5-64.9 300.9z"/></symbol><symbol viewBox="-160 -160 768 832" id="event" xmlns="http://www.w3.org/2000/svg"><path d="M148 288h-40c-6.6 0-12-5.4-12-12v-40c0-6.6 5.4-12 12-12h40c6.6 0 12 5.4 12 12v40c0 6.6-5.4 12-12 12zm108-12v-40c0-6.6-5.4-12-12-12h-40c-6.6 0-12 5.4-12 12v40c0 6.6 5.4 12 12 12h40c6.6 0 12-5.4 12-12zm96 0v-40c0-6.6-5.4-12-12-12h-40c-6.6 0-12 5.4-12 12v40c0 6.6 5.4 12 12 12h40c6.6 0 12-5.4 12-12zm-96 96v-40c0-6.6-5.4-12-12-12h-40c-6.6 0-12 5.4-12 12v40c0 6.6 5.4 12 12 12h40c6.6 0 12-5.4 12-12zm-96 0v-40c0-6.6-5.4-12-12-12h-40c-6.6 0-12 5.4-12 12v40c0 6.6 5.4 12 12 12h40c6.6 0 12-5.4 12-12zm192 0v-40c0-6.6-5.4-12-12-12h-40c-6.6 0-12 5.4-12 12v40c0 6.6 5.4 12 12 12h40c6.6 0 12-5.4 12-12zm96-260v352c0 26.5-21.5 48-48 48H48c-26.5 0-48-21.5-48-48V112c0-26.5 21.5-48 48-48h48V12c0-6.6 5.4-12 12-12h40c6.6 0 12 5.4 12 12v52h128V12c0-6.6 5.4-12 12-12h40c6.6 0 12 5.4 12 12v52h48c26.5 0 48 21.5 48 48zm-48 346V160H48v298c0 3.3 2.7 6 6 6h340c3.3 0 6-2.7 6-6z"/></symbol><symbol viewBox="-200 -200 1040 912" id="exercise" xmlns="http://www.w3.org/2000/svg"><path d="M512.509 192.001c-16.373-.064-32.03 2.955-46.436 8.495l-77.68-125.153A24 24 0 0 0 368.001 64h-64c-8.837 0-16 7.163-16 16v16c0 8.837 7.163 16 16 16h50.649l14.896 24H256.002v-16c0-8.837-7.163-16-16-16h-87.459c-13.441 0-24.777 10.999-24.536 24.437.232 13.044 10.876 23.563 23.995 23.563h48.726l-29.417 47.52c-13.433-4.83-27.904-7.483-42.992-7.52C58.094 191.83.412 249.012.002 319.236-.413 390.279 57.055 448 128.002 448c59.642 0 109.758-40.793 123.967-96h52.033a24 24 0 0 0 20.406-11.367L410.37 201.77l14.938 24.067c-25.455 23.448-41.385 57.081-41.307 94.437.145 68.833 57.899 127.051 126.729 127.719 70.606.685 128.181-55.803 129.255-125.996 1.086-70.941-56.526-129.72-127.476-129.996zM186.75 265.772c9.727 10.529 16.673 23.661 19.642 38.228h-43.306l23.664-38.228zM128.002 400c-44.112 0-80-35.888-80-80s35.888-80 80-80c5.869 0 11.586.653 17.099 1.859l-45.505 73.509C89.715 331.327 101.213 352 120.002 352h81.3c-12.37 28.225-40.562 48-73.3 48zm162.63-96h-35.624c-3.96-31.756-19.556-59.894-42.383-80.026L237.371 184h127.547l-74.286 120zm217.057 95.886c-41.036-2.165-74.049-35.692-75.627-76.755-.812-21.121 6.633-40.518 19.335-55.263l44.433 71.586c4.66 7.508 14.524 9.816 22.032 5.156l13.594-8.437c7.508-4.66 9.817-14.524 5.156-22.032l-44.468-71.643a79.901 79.901 0 0 1 19.858-2.497c44.112 0 80 35.888 80 80-.001 45.54-38.252 82.316-84.313 79.885z"/></symbol><symbol viewBox="-180 -180 936 872" id="favorite" xmlns="http://www.w3.org/2000/svg"><path d="M259.3 17.8L194 150.2 47.9 171.5c-26.2 3.8-36.7 36.1-17.7 54.6l105.7 103-25 145.5c-4.5 26.3 23.2 46 46.4 33.7L288 439.6l130.7 68.7c23.2 12.2 50.9-7.4 46.4-33.7l-25-145.5 105.7-103c19-18.5 8.5-50.8-17.7-54.6L382 150.2 316.7 17.8c-11.7-23.6-45.6-23.9-57.4 0z"/></symbol><symbol viewBox="-160 -160 768.1 832" id="firehose" xmlns="http://www.w3.org/2000/svg"><path d="M448.1 344v112c0 13.3-10.7 24-24 24h-112c-21.4 0-32.1-25.9-17-41l36.2-36.2L224 295.6 116.8 402.9 153 439c15.1 15.1 4.4 41-17 41H24c-13.3 0-24-10.7-24-24V344c0-21.4 25.9-32.1 41-17l36.2 36.2L184.5 256 77.2 148.7 41 185c-15.1 15.1-41 4.4-41-17V56c0-13.3 10.7-24 24-24h112c21.4 0 32.1 25.9 17 41l-36.2 36.2L224 216.4l107.3-107.3L295.1 73c-15.1-15.1-4.4-41 17-41h112c13.3 0 24 10.7 24 24v112c0 21.4-25.9 32.1-41 17l-36.2-36.2L263.6 256l107.3 107.3 36.2-36.2c15.1-15.2 41-4.5 41 16.9z"/></symbol><symbol viewBox="-200 -200 1040 912" id="follow" xmlns="http://www.w3.org/2000/svg"><path d="M616 332c0-6.627-5.373-12-12-12h-60v-60c0-6.627-5.373-12-12-12h-40c-6.627 0-12 5.373-12 12v60h-60c-6.627 0-12 5.373-12 12v40c0 6.627 5.373 12 12 12h60v60c0 6.627 5.373 12 12 12h40c6.627 0 12-5.373 12-12v-60h60c6.627 0 12-5.373 12-12v-40zM448 444v15c0 11.598-9.402 21-21 21H21c-11.598 0-21-9.402-21-21v-21c0-54.124 43.876-98 98-98h24.986c62.104 37.358 139.897 37.374 202.027 0H350a98.09 98.09 0 0 1 26 3.493V372c0 24.262 19.738 44 44 44h25.519c2.768 12.064 2.481 20.659 2.481 28zM84 172c0-77.32 62.68-140 140-140s140 62.68 140 140-62.68 140-140 140S84 249.32 84 172z"/></symbol><symbol viewBox="-160 -160 832 832" id="issue" xmlns="http://www.w3.org/2000/svg"><path d="M504 256c0 136.997-111.043 248-248 248S8 392.997 8 256C8 119.083 119.043 8 256 8s248 111.083 248 248zm-248 50c-25.405 0-46 20.595-46 46s20.595 46 46 46 46-20.595 46-46-20.595-46-46-46zm-43.673-165.346l7.418 136c.347 6.364 5.609 11.346 11.982 11.346h48.546c6.373 0 11.635-4.982 11.982-11.346l7.418-136c.375-6.874-5.098-12.654-11.982-12.654h-63.383c-6.884 0-12.356 5.78-11.981 12.654z"/></symbol><symbol viewBox="-160 -160 832 832" id="itinerary" xmlns="http://www.w3.org/2000/svg"><path d="M96 480h320V128h-32V80c0-26.51-21.49-48-48-48H176c-26.51 0-48 21.49-48 48v48H96v352zm96-384h128v32H192V96zm320 80v256c0 26.51-21.49 48-48 48h-16V128h16c26.51 0 48 21.49 48 48zM64 480H48c-26.51 0-48-21.49-48-48V176c0-26.51 21.49-48 48-48h16v352z"/></symbol><symbol viewBox="-160 -160 832 832" id="jam" xmlns="http://www.w3.org/2000/svg"><path d="M470.4 1.5l-304 96C153.1 101.7 144 114 144 128v264.6c-14.1-5.4-30.5-8.6-48-8.6-53 0-96 28.7-96 64s43 64 96 64 96-28.7 96-64V220.5l272-85.9v194c-14.1-5.4-30.5-8.6-48-8.6-53 0-96 28.7-96 64s43 64 96 64 96-28.7 96-64V32c0-21.7-21.1-37-41.6-30.5z"/></symbol><symbol viewBox="-180 -180 936 872" id="like" xmlns="http://www.w3.org/2000/svg"><path d="M414.9 24C361.8 24 312 65.7 288 89.3 264 65.7 214.2 24 161.1 24 70.3 24 16 76.9 16 165.5c0 72.6 66.8 133.3 69.2 135.4l187 180.8c8.8 8.5 22.8 8.5 31.6 0l186.7-180.2c2.7-2.7 69.5-63.5 69.5-136C560 76.9 505.7 24 414.9 24z"/></symbol><symbol viewBox="-160 -160 832 832" id="listen" xmlns="http://www.w3.org/2000/svg"><path d="M256 32C114.52 32 0 146.496 0 288v48a32 32 0 0 0 17.689 28.622l14.383 7.191C34.083 431.903 83.421 480 144 480h24c13.255 0 24-10.745 24-24V280c0-13.255-10.745-24-24-24h-24c-31.342 0-59.671 12.879-80 33.627V288c0-105.869 86.131-192 192-192s192 86.131 192 192v1.627C427.671 268.879 399.342 256 368 256h-24c-13.255 0-24 10.745-24 24v176c0 13.255 10.745 24 24 24h24c60.579 0 109.917-48.098 111.928-108.187l14.382-7.191A32 32 0 0 0 512 336v-48c0-141.479-114.496-256-256-256z"/></symbol><symbol viewBox="-160 -160 832 832" id="mood" xmlns="http://www.w3.org/2000/svg"><path d="M504 256c0 136.967-111.033 248-248 248S8 392.967 8 256 119.033 8 256 8s248 111.033 248 248zm-396-64c0 37.497 30.503 68 68 68s68-30.503 68-68-30.503-68-68-68-68 30.503-68 68zm160.5 0c0 37.221 30.279 67.5 67.5 67.5s67.5-30.279 67.5-67.5-30.279-67.5-67.5-67.5-67.5 30.279-67.5 67.5zm67.5-48a47.789 47.789 0 0 0-22.603 5.647h.015c10.916 0 19.765 8.849 19.765 19.765s-8.849 19.765-19.765 19.765-19.765-8.849-19.765-19.765v-.015A47.789 47.789 0 0 0 288 192c0 26.51 21.49 48 48 48s48-21.49 48-48-21.49-48-48-48zm-160 0a47.789 47.789 0 0 0-22.603 5.647h.015c10.916 0 19.765 8.849 19.765 19.765s-8.849 19.765-19.765 19.765-19.765-8.849-19.765-19.765v-.015A47.789 47.789 0 0 0 128 192c0 26.51 21.49 48 48 48s48-21.49 48-48-21.49-48-48-48zm160 208H176c-21.178 0-21.169 32 0 32h160c21.178 0 21.169-32 0-32z"/></symbol><symbol viewBox="-160 -160 768 832" id="note" xmlns="http://www.w3.org/2000/svg"><path d="M312 320h136V56c0-13.3-10.7-24-24-24H24C10.7 32 0 42.7 0 56v400c0 13.3 10.7 24 24 24h264V344c0-13.2 10.8-24 24-24zm129 55l-98 98c-4.5 4.5-10.6 7-17 7h-6V352h128v6.1c0 6.3-2.5 12.4-7 16.9z"/></symbol><symbol viewBox="-160 -160 832 832" id="photo" xmlns="http://www.w3.org/2000/svg"><path d="M48 32C21.5 32 0 53.5 0 80v352c0 26.5 21.5 48 48 48h416c26.5 0 48-21.5 48-48V80c0-26.5-21.5-48-48-48H48zm0 32h106c3.3 0 6 2.7 6 6v20c0 3.3-2.7 6-6 6H38c-3.3 0-6-2.7-6-6V80c0-8.8 7.2-16 16-16zm426 96H38c-3.3 0-6-2.7-6-6v-36c0-3.3 2.7-6 6-6h138l30.2-45.3c1.1-1.7 3-2.7 5-2.7H464c8.8 0 16 7.2 16 16v74c0 3.3-2.7 6-6 6zM256 424c-66.2 0-120-53.8-120-120s53.8-120 120-120 120 53.8 120 120-53.8 120-120 120zm0-208c-48.5 0-88 39.5-88 88s39.5 88 88 88 88-39.5 88-88-39.5-88-88-88zm-48 104c-8.8 0-16-7.2-16-16 0-35.3 28.7-64 64-64 8.8 0 16 7.2 16 16s-7.2 16-16 16c-17.6 0-32 14.4-32 32 0 8.8-7.2 16-16 16z"/></symbol><symbol viewBox="-200 -200 1040 912" id="play" xmlns="http://www.w3.org/2000/svg"><path d="M480 96H160C71.6 96 0 167.6 0 256s71.6 160 160 160c44.8 0 85.2-18.4 114.2-48h91.5c29 29.6 69.5 48 114.2 48 88.4 0 160-71.6 160-160S568.4 96 480 96zM256 276c0 6.6-5.4 12-12 12h-52v52c0 6.6-5.4 12-12 12h-40c-6.6 0-12-5.4-12-12v-52H76c-6.6 0-12-5.4-12-12v-40c0-6.6 5.4-12 12-12h52v-52c0-6.6 5.4-12 12-12h40c6.6 0 12 5.4 12 12v52h52c6.6 0 12 5.4 12 12v40zm184 68c-26.5 0-48-21.5-48-48s21.5-48 48-48 48 21.5 48 48-21.5 48-48 48zm80-80c-26.5 0-48-21.5-48-48s21.5-48 48-48 48 21.5 48 48-21.5 48-48 48z"/></symbol><symbol viewBox="-160 -160 704 832" id="question" xmlns="http://www.w3.org/2000/svg"><path d="M202.021 0C122.202 0 70.503 32.703 29.914 91.026c-7.363 10.58-5.093 25.086 5.178 32.874l43.138 32.709c10.373 7.865 25.132 6.026 33.253-4.148 25.049-31.381 43.63-49.449 82.757-49.449 30.764 0 68.816 19.799 68.816 49.631 0 22.552-18.617 34.134-48.993 51.164-35.423 19.86-82.299 44.576-82.299 106.405V320c0 13.255 10.745 24 24 24h72.471c13.255 0 24-10.745 24-24v-5.773c0-42.86 125.268-44.645 125.268-160.627C377.504 66.256 286.902 0 202.021 0zM192 373.459c-38.196 0-69.271 31.075-69.271 69.271 0 38.195 31.075 69.27 69.271 69.27s69.271-31.075 69.271-69.271-31.075-69.27-69.271-69.27z"/></symbol><symbol viewBox="-160 -160 832 832" id="quote" xmlns="http://www.w3.org/2000/svg"><path d="M512 80v128c0 137.018-63.772 236.324-193.827 271.172-15.225 4.08-30.173-7.437-30.173-23.199v-33.895c0-10.057 6.228-19.133 15.687-22.55C369.684 375.688 408 330.054 408 256h-72c-26.51 0-48-21.49-48-48V80c0-26.51 21.49-48 48-48h128c26.51 0 48 21.49 48 48zM176 32H48C21.49 32 0 53.49 0 80v128c0 26.51 21.49 48 48 48h72c0 74.054-38.316 119.688-104.313 143.528C6.228 402.945 0 412.021 0 422.078v33.895c0 15.762 14.948 27.279 30.173 23.199C160.228 444.324 224 345.018 224 208V80c0-26.51-21.49-48-48-48z"/></symbol><symbol viewBox="-160 -160 768 832" id="read" xmlns="http://www.w3.org/2000/svg"><path d="M448 360V24c0-13.3-10.7-24-24-24H96C43 0 0 43 0 96v320c0 53 43 96 96 96h328c13.3 0 24-10.7 24-24v-16c0-7.5-3.5-14.3-8.9-18.7-4.2-15.4-4.2-59.3 0-74.7 5.4-4.3 8.9-11.1 8.9-18.6zM128 134c0-3.3 2.7-6 6-6h212c3.3 0 6 2.7 6 6v20c0 3.3-2.7 6-6 6H134c-3.3 0-6-2.7-6-6v-20zm0 64c0-3.3 2.7-6 6-6h212c3.3 0 6 2.7 6 6v20c0 3.3-2.7 6-6 6H134c-3.3 0-6-2.7-6-6v-20zm253.4 250H96c-17.7 0-32-14.3-32-32 0-17.6 14.4-32 32-32h285.4c-1.9 17.1-1.9 46.9 0 64z"/></symbol><symbol viewBox="-160 -160 832 832" id="recipe" xmlns="http://www.w3.org/2000/svg"><path d="M464 480H48c-26.51 0-48-21.49-48-48V80c0-26.51 21.49-48 48-48h416c26.51 0 48 21.49 48 48v352c0 26.51-21.49 48-48 48zM128 120c-22.091 0-40 17.909-40 40s17.909 40 40 40 40-17.909 40-40-17.909-40-40-40zm0 96c-22.091 0-40 17.909-40 40s17.909 40 40 40 40-17.909 40-40-17.909-40-40-40zm0 96c-22.091 0-40 17.909-40 40s17.909 40 40 40 40-17.909 40-40-17.909-40-40-40zm288-136v-32c0-6.627-5.373-12-12-12H204c-6.627 0-12 5.373-12 12v32c0 6.627 5.373 12 12 12h200c6.627 0 12-5.373 12-12zm0 96v-32c0-6.627-5.373-12-12-12H204c-6.627 0-12 5.373-12 12v32c0 6.627 5.373 12 12 12h200c6.627 0 12-5.373 12-12zm0 96v-32c0-6.627-5.373-12-12-12H204c-6.627 0-12 5.373-12 12v32c0 6.627 5.373 12 12 12h200c6.627 0 12-5.373 12-12z"/></symbol><symbol viewBox="-180 -180 936 872" id="reply" xmlns="http://www.w3.org/2000/svg"><path d="M576 240c0 115-129 208-288 208-48.3 0-93.9-8.6-133.9-23.8-40.3 31.2-89.8 50.3-142.4 55.7-5.2.6-10.2-2.8-11.5-7.7-1.3-5 2.7-8.1 6.6-11.8 19.3-18.4 42.7-32.8 51.9-94.6C21.9 330.9 0 287.3 0 240 0 125.1 129 32 288 32s288 93.1 288 208z"/></symbol><symbol viewBox="-200 -200 1040 912" id="repost" xmlns="http://www.w3.org/2000/svg"><path d="M629.657 343.598L528.971 444.284c-9.373 9.372-24.568 9.372-33.941 0L394.343 343.598c-9.373-9.373-9.373-24.569 0-33.941l10.823-10.823c9.562-9.562 25.133-9.34 34.419.492L480 342.118V160H292.451a24.005 24.005 0 0 1-16.971-7.029l-16-16C244.361 121.851 255.069 96 276.451 96H520c13.255 0 24 10.745 24 24v222.118l40.416-42.792c9.285-9.831 24.856-10.054 34.419-.492l10.823 10.823c9.372 9.372 9.372 24.569-.001 33.941zm-265.138 15.431A23.999 23.999 0 0 0 347.548 352H160V169.881l40.416 42.792c9.286 9.831 24.856 10.054 34.419.491l10.822-10.822c9.373-9.373 9.373-24.569 0-33.941L144.971 67.716c-9.373-9.373-24.569-9.373-33.941 0L10.343 168.402c-9.373 9.373-9.373 24.569 0 33.941l10.822 10.822c9.562 9.562 25.133 9.34 34.419-.491L96 169.881V392c0 13.255 10.745 24 24 24h243.549c21.382 0 32.09-25.851 16.971-40.971l-16.001-16z"/></symbol><symbol viewBox="-160 -160 768 832" id="rsvp" xmlns="http://www.w3.org/2000/svg"><path d="M436 160H12c-6.627 0-12-5.373-12-12v-36c0-26.51 21.49-48 48-48h48V12c0-6.627 5.373-12 12-12h40c6.627 0 12 5.373 12 12v52h128V12c0-6.627 5.373-12 12-12h40c6.627 0 12 5.373 12 12v52h48c26.51 0 48 21.49 48 48v36c0 6.627-5.373 12-12 12zM12 192h424c6.627 0 12 5.373 12 12v260c0 26.51-21.49 48-48 48H48c-26.51 0-48-21.49-48-48V204c0-6.627 5.373-12 12-12zm333.296 95.947l-28.169-28.398c-4.667-4.705-12.265-4.736-16.97-.068L194.12 364.665l-45.98-46.352c-4.667-4.705-12.266-4.736-16.971-.068l-28.397 28.17c-4.705 4.667-4.736 12.265-.068 16.97l82.601 83.269c4.667 4.705 12.265 4.736 16.97.068l142.953-141.805c4.705-4.667 4.736-12.265.068-16.97z"/></symbol><symbol viewBox="-180 -180 936 872" id="sleep" xmlns="http://www.w3.org/2000/svg"><path d="M552 288c13.255 0 24 10.745 24 24v136h-96v-64H96v64H0V88c0-13.255 10.745-24 24-24h48c13.255 0 24 10.745 24 24v200h456zM192 96c-44.183 0-80 35.817-80 80s35.817 80 80 80 80-35.817 80-80-35.817-80-80-80zm384 128c0-53.019-42.981-96-96-96H312c-13.255 0-24 10.745-24 24v104h288v-32z"/></symbol><symbol viewBox="-160 -160 832 832" id="tag" xmlns="http://www.w3.org/2000/svg"><path d="M0 252.118V48C0 21.49 21.49 0 48 0h204.118a48 48 0 0 1 33.941 14.059l211.882 211.882c18.745 18.745 18.745 49.137 0 67.882L293.823 497.941c-18.745 18.745-49.137 18.745-67.882 0L14.059 286.059A48 48 0 0 1 0 252.118zM112 64c-26.51 0-48 21.49-48 48s21.49 48 48 48 48-21.49 48-48-21.49-48-48-48z"/></symbol><symbol viewBox="-160 -160 832 832" id="trip" xmlns="http://www.w3.org/2000/svg"><path d="M487.515 104.485L439.03 152.97a23.998 23.998 0 0 1-16.97 7.029H56c-13.255 0-24-10.745-24-24V56c0-13.255 10.745-24 24-24h160v-8c0-13.255 10.745-24 24-24h32c13.255 0 24 10.745 24 24v8h126.059a24 24 0 0 1 16.97 7.029l48.485 48.485c4.687 4.687 4.687 12.285.001 16.971zM216 368v120c0 13.255 10.745 24 24 24h32c13.255 0 24-10.745 24-24V368h-80zm240-144H296v-48h-80v48H89.941a24 24 0 0 0-16.97 7.029l-48.485 48.485c-4.686 4.686-4.686 12.284 0 16.971l48.485 48.485a23.998 23.998 0 0 0 16.97 7.029H456c13.255 0 24-10.745 24-24v-80C480 234.745 469.255 224 456 224z"/></symbol><symbol viewBox="-160 -160 832 832" id="video" xmlns="http://www.w3.org/2000/svg"><path d="M488 64h-8v20c0 6.6-5.4 12-12 12h-40c-6.6 0-12-5.4-12-12V64H96v20c0 6.6-5.4 12-12 12H44c-6.6 0-12-5.4-12-12V64h-8C10.7 64 0 74.7 0 88v336c0 13.3 10.7 24 24 24h8v-20c0-6.6 5.4-12 12-12h40c6.6 0 12 5.4 12 12v20h320v-20c0-6.6 5.4-12 12-12h40c6.6 0 12 5.4 12 12v20h8c13.3 0 24-10.7 24-24V88c0-13.3-10.7-24-24-24zM96 372c0 6.6-5.4 12-12 12H44c-6.6 0-12-5.4-12-12v-40c0-6.6 5.4-12 12-12h40c6.6 0 12 5.4 12 12v40zm0-96c0 6.6-5.4 12-12 12H44c-6.6 0-12-5.4-12-12v-40c0-6.6 5.4-12 12-12h40c6.6 0 12 5.4 12 12v40zm0-96c0 6.6-5.4 12-12 12H44c-6.6 0-12-5.4-12-12v-40c0-6.6 5.4-12 12-12h40c6.6 0 12 5.4 12 12v40zm272 208c0 6.6-5.4 12-12 12H156c-6.6 0-12-5.4-12-12v-96c0-6.6 5.4-12 12-12h200c6.6 0 12 5.4 12 12v96zm0-168c0 6.6-5.4 12-12 12H156c-6.6 0-12-5.4-12-12v-96c0-6.6 5.4-12 12-12h200c6.6 0 12 5.4 12 12v96zm112 152c0 6.6-5.4 12-12 12h-40c-6.6 0-12-5.4-12-12v-40c0-6.6 5.4-12 12-12h40c6.6 0 12 5.4 12 12v40zm0-96c0 6.6-5.4 12-12 12h-40c-6.6 0-12-5.4-12-12v-40c0-6.6 5.4-12 12-12h40c6.6 0 12 5.4 12 12v40zm0-96c0 6.6-5.4 12-12 12h-40c-6.6 0-12-5.4-12-12v-40c0-6.6 5.4-12 12-12h40c6.6 0 12 5.4 12 12v40z"/></symbol><symbol viewBox="-160 -160 768 832" id="watch" xmlns="http://www.w3.org/2000/svg"><path d="M424.4 214.7L72.4 6.6C43.8-10.3 0 6.1 0 47.9V464c0 37.5 40.7 60.1 72.4 41.3l352-208c31.4-18.5 31.5-64.1 0-82.6z"/></symbol><symbol viewBox="-160 -160 832 832" id="weather" xmlns="http://www.w3.org/2000/svg"><path d="M220.116 487.936l-20.213-49.425a3.992 3.992 0 0 0-5.808-1.886l-45.404 28.104c-29.466 18.24-66.295-8.519-58.054-42.179l12.699-51.865a3.993 3.993 0 0 0-3.59-4.941l-53.251-3.951c-34.554-2.562-48.632-45.855-22.174-68.247L65.08 259.05a3.992 3.992 0 0 0 0-6.106l-40.76-34.497c-26.45-22.384-12.39-65.682 22.174-68.246l53.251-3.951a3.993 3.993 0 0 0 3.59-4.941L90.637 89.443c-8.239-33.656 28.581-60.42 58.054-42.179l45.403 28.104a3.993 3.993 0 0 0 5.808-1.887l20.213-49.425c13.116-32.071 58.638-32.081 71.758 0l20.212 49.424a3.994 3.994 0 0 0 5.809 1.887l45.403-28.104c29.464-18.236 66.297 8.513 58.054 42.179l-12.699 51.865a3.995 3.995 0 0 0 3.59 4.941l53.251 3.951c34.553 2.563 48.633 45.854 22.175 68.246l-40.76 34.497a3.993 3.993 0 0 0 0 6.107l40.76 34.496c26.511 22.441 12.322 65.689-22.175 68.247l-53.251 3.951a3.993 3.993 0 0 0-3.589 4.942l12.698 51.864c8.241 33.658-28.583 60.421-58.054 42.18l-45.403-28.104a3.994 3.994 0 0 0-5.809 1.887l-20.212 49.424c-13.159 32.178-58.675 31.993-71.757 0zm16.814-64.568l19.064 46.616 19.064-46.615c10.308-25.2 40.778-35.066 63.892-20.759l42.822 26.507-11.976-48.919c-6.475-26.444 12.38-52.339 39.487-54.349l50.226-3.726-38.444-32.536c-20.782-17.591-20.747-49.621.001-67.18l38.442-32.536-50.225-3.727c-27.151-2.015-45.95-27.948-39.488-54.349l11.978-48.919-42.823 26.507c-23.151 14.327-53.603 4.4-63.892-20.76l-19.064-46.615-19.064 46.617c-10.305 25.198-40.778 35.066-63.891 20.76l-42.823-26.508 11.977 48.918c6.474 26.446-12.381 52.338-39.488 54.35l-50.224 3.726 38.443 32.537c20.782 17.588 20.747 49.619 0 67.178L52.48 322.123l50.226 3.726c27.151 2.014 45.95 27.947 39.487 54.349l-11.977 48.919 42.823-26.507c23.188-14.355 53.622-4.352 63.891 20.758zM256 384c-70.58 0-128-57.421-128-128 0-70.58 57.42-128 128-128 70.579 0 128 57.42 128 128 0 70.579-57.421 128-128 128zm0-208c-44.112 0-80 35.888-80 80s35.888 80 80 80 80-35.888 80-80-35.888-80-80-80z"/></symbol><symbol viewBox="-180 -180 936 872" id="wish" xmlns="http://www.w3.org/2000/svg"><path d="M528.12 301.319l47.273-208C578.806 78.301 567.391 64 551.99 64H159.208l-9.166-44.81C147.758 8.021 137.93 0 126.529 0H24C10.745 0 0 10.745 0 24v16c0 13.255 10.745 24 24 24h69.883l70.248 343.435C147.325 417.1 136 435.222 136 456c0 30.928 25.072 56 56 56s56-25.072 56-56c0-15.674-6.447-29.835-16.824-40h209.647C430.447 426.165 424 440.326 424 456c0 30.928 25.072 56 56 56s56-25.072 56-56c0-22.172-12.888-41.332-31.579-50.405l5.517-24.276c3.413-15.018-8.002-29.319-23.403-29.319H218.117l-6.545-32h293.145c11.206 0 20.92-7.754 23.403-18.681z"/></symbol></svg>