<svg viewBox="0 0 24 24" xmlns="http://www.w3.org/2000/svg"><symbol viewBox="0 0 16 16" id="article"><title>article</title> <path d="M11,2H5C3.9,2,3,2.9,3,4v8c0,1.1,0.9,2,2,2h5l3-3V4C13,2.9,12.1,2,11,2z M11,9h-1c-1.1,0-2,0.9-2,2v1H5V4h6V9z"/> <rect x="6" y="5" width="4" height="1"/> <rect x="6" y="7" width="2" height="1"/> </symbol><symbol viewBox="0 0 1792 1792" id="bookmark"><title>bookmark</title><path d="M1420 128q23 0 44 9 33 13 52.5 41t19.5 62v1289q0 34-19.5 62t-52.5 41q-19 8-44 8-48 0-83-32l-441-424-441 424q-36 33-83 33-23 0-44-9-33-13-52.5-41t-19.5-62v-1289q0-34 19.5-62t52.5-41q21-9 44-9h1048z"/></symbol><symbol viewBox="0 0 16 16" id="checkin"><title>checkin</title> <path d="M11.5,3.5c-2-2-5.1-2-7.1,0c-2,2-2,5.1,0,7.1L8,14.1l3.5-3.5C13.5,8.6,13.5,5.4,11.5,3.5z M9.4,8.4c-0.8,0.8-2,0.8-2.8,0
	c-0.8-0.8-0.8-2,0-2.8c0.8-0.8,2-0.8,2.8,0C10.2,6.4,10.2,7.6,9.4,8.4z"/> </symbol><symbol viewBox="0 0 1792 1792" id="drink"><title>drink</title><path d="M1600 640q0-80-56-136t-136-56h-64v384h64q80 0 136-56t56-136zm-1664 768h1792q0 106-75 181t-181 75h-1280q-106 0-181-75t-75-181zm1856-768q0 159-112.5 271.5t-271.5 112.5h-64v32q0 92-66 158t-158 66h-704q-92 0-158-66t-66-158v-736q0-26 19-45t45-19h1152q159 0 271.5 112.5t112.5 271.5z"/></symbol><symbol viewBox="0 0 16 16" id="exercise"><title>exercise</title> <style type="text/css"> .st0{fill:#231F20;} </style> <path class="st0" d="M10,11.8L8.5,7.7l-1.6,3.7c-0.3,0.8-1.4,0.8-1.8,0.1L3.9,9l-1.1,1.6L1.2,9.4l2-3c0.4-0.6,1.4-0.6,1.7,0.1l1,2.1
	l1.7-4c0.3-0.8,1.5-0.8,1.8,0l1.6,4l2.1-5.9l1.8,0.6l-3,8.5C11.6,12.7,10.4,12.7,10,11.8z"/> </symbol><symbol viewBox="0 0 16 16" id="favorite"><title>favorite</title> <polygon points="8,1.3 10,5.9 15,6.4 11.3,9.8 12.3,14.7 8,12.2 3.7,14.7 4.7,9.8 1,6.4 6,5.9 "/> </symbol><symbol viewBox="0 0 1792 1792" id="food"><title>food</title><path d="M832 64v640q0 61-35.5 111t-92.5 70v779q0 52-38 90t-90 38h-128q-52 0-90-38t-38-90v-779q-57-20-92.5-70t-35.5-111v-640q0-26 19-45t45-19 45 19 19 45v416q0 26 19 45t45 19 45-19 19-45v-416q0-26 19-45t45-19 45 19 19 45v416q0 26 19 45t45 19 45-19 19-45v-416q0-26 19-45t45-19 45 19 19 45zm768 0v1600q0 52-38 90t-90 38h-128q-52 0-90-38t-38-90v-512h-224q-13 0-22.5-9.5t-9.5-22.5v-800q0-132 94-226t226-94h256q26 0 45 19t19 45z"/></symbol><symbol viewBox="0 0 1792 1792" id="itinerary"><title>itinerary</title><path d="M640 384h512v-128h-512v128zm-352 0v1280h-64q-92 0-158-66t-66-158v-832q0-92 66-158t158-66h64zm1120 0v1280h-1024v-1280h128v-160q0-40 28-68t68-28h576q40 0 68 28t28 68v160h128zm384 224v832q0 92-66 158t-158 66h-64v-1280h64q92 0 158 66t66 158z"/></symbol><symbol viewBox="0 0 1792 1792" id="jam"><title>jam</title><path d="M1664 224v1120q0 50-34 89t-86 60.5-103.5 32-96.5 10.5-96.5-10.5-103.5-32-86-60.5-34-89 34-89 86-60.5 103.5-32 96.5-10.5q105 0 192 39v-537l-768 237v709q0 50-34 89t-86 60.5-103.5 32-96.5 10.5-96.5-10.5-103.5-32-86-60.5-34-89 34-89 86-60.5 103.5-32 96.5-10.5q105 0 192 39v-967q0-31 19-56.5t49-35.5l832-256q12-4 28-4 40 0 68 28t28 68z"/></symbol><symbol viewBox="0 0 16 16" id="like"><title>like</title> <path d="M8,13L2.9,8.2C1.8,7.1,1.7,5.2,2.7,4c1-1.2,2.8-1.3,4-0.2L8,5l1.3-1.2c1.2-1.1,3-1,4,0.2c1.1,1.2,1,3.1-0.2,4.2L8,13z"/> </symbol><symbol viewBox="0 0 1792 1792" id="listen"><title>listen</title><path d="M1728 886q0 166-60 314l-20 49-185 33q-22 83-90.5 136.5t-156.5 53.5v32q0 14-9 23t-23 9h-64q-14 0-23-9t-9-23v-576q0-14 9-23t23-9h64q14 0 23 9t9 23v32q71 0 130 35.5t93 95.5l68-12q29-95 29-193 0-148-88-279t-236.5-209-315.5-78-315.5 78-236.5 209-88 279q0 98 29 193l68 12q34-60 93-95.5t130-35.5v-32q0-14 9-23t23-9h64q14 0 23 9t9 23v576q0 14-9 23t-23 9h-64q-14 0-23-9t-9-23v-32q-88 0-156.5-53.5t-90.5-136.5l-185-33-20-49q-60-148-60-314 0-151 67-291t179-242.5 266-163.5 320-61 320 61 266 163.5 179 242.5 67 291z"/></symbol><symbol viewBox="0 0 16 16" id="mood"><title>moodkind/mood.svg at master &#xB7; acegiak/moodkind &#xB7; GitHub</title><path fill-rule="evenodd" d="M8 0C3.58 0 0 3.58 0 8c0 3.54 2.29 6.53 5.47 7.59.4.07.55-.17.55-.38 0-.19-.01-.82-.01-1.49-2.01.37-2.53-.49-2.69-.94-.09-.23-.48-.94-.82-1.13-.28-.15-.68-.52-.01-.53.63-.01 1.08.58 1.23.82.72 1.21 1.87.87 2.33.66.07-.52.28-.87.51-1.07-1.78-.2-3.64-.89-3.64-3.95 0-.87.31-1.59.82-2.15-.08-.2-.36-1.02.08-2.12 0 0 .67-.21 2.2.82.64-.18 1.32-.27 2-.27.68 0 1.36.09 2 .27 1.53-1.04 2.2-.82 2.2-.82.44 1.1.16 1.92.08 2.12.51.56.82 1.27.82 2.15 0 3.07-1.87 3.75-3.65 3.95.29.25.54.73.54 1.48 0 1.07-.01 1.93-.01 2.2 0 .21.15.46.55.38A8.013 8.013 0 0 0 16 8c0-4.42-3.58-8-8-8z"/></symbol><symbol viewBox="0 0 16 16" id="note"><title>note</title> <path d="M11,3H5C3.9,3,3,3.9,3,5v6c0,1.1,0.9,2,2,2h5l3-3V5C13,3.9,12.1,3,11,3z M11,8h-1c-1.1,0-2,0.9-2,2v1H5V5h6V8z"/> </symbol><symbol viewBox="0 0 16 16" id="photo"><title>photo</title> <path d="M13,5h-2l-1-2H6L5,5H3C2.4,5,2,5.4,2,6v6c0,0.5,0.4,1,1,1h10c0.5,0,1-0.4,1-1V6C14,5.4,13.6,5,13,5z M8,12c-1.7,0-3-1.3-3-3
	s1.3-3,3-3s3,1.3,3,3S9.7,12,8,12z M8,7C6.9,7,6,7.9,6,9s0.9,2,2,2s2-0.9,2-2S9.1,7,8,7z"/> </symbol><symbol viewBox="0 0 1792 1792" id="play"><title>play</title><path d="M768 1088v-128q0-14-9-23t-23-9h-192v-192q0-14-9-23t-23-9h-128q-14 0-23 9t-9 23v192h-192q-14 0-23 9t-9 23v128q0 14 9 23t23 9h192v192q0 14 9 23t23 9h128q14 0 23-9t9-23v-192h192q14 0 23-9t9-23zm576 64q0-53-37.5-90.5t-90.5-37.5-90.5 37.5-37.5 90.5 37.5 90.5 90.5 37.5 90.5-37.5 37.5-90.5zm256-256q0-53-37.5-90.5t-90.5-37.5-90.5 37.5-37.5 90.5 37.5 90.5 90.5 37.5 90.5-37.5 37.5-90.5zm256 128q0 212-150 362t-362 150q-192 0-338-128h-220q-146 128-338 128-212 0-362-150t-150-362 150-362 362-150h896q212 0 362 150t150 362z"/></symbol><symbol viewBox="0 0 16 16" id="quote"><title>quote</title> <path d="M2,9h3c0,1.1-0.9,2-2,2v2c2.2,0,4-1.8,4-4V4H2V9z M9,4v5h3c0,1.1-0.9,2-2,2v2c2.2,0,4-1.8,4-4V4H9z"/> </symbol><symbol viewBox="0 0 16 16" id="read"><title>read</title> <path d="M11,2H7v7L6,8L5,9V2H3v12h8c1.1,0,2-0.9,2-2V4C13,2.9,12.1,2,11,2z"/> </symbol><symbol viewBox="0 0 1792 1792" id="recipe"><title>recipe</title><path d="M384 1184v64q0 13-9.5 22.5t-22.5 9.5h-64q-13 0-22.5-9.5t-9.5-22.5v-64q0-13 9.5-22.5t22.5-9.5h64q13 0 22.5 9.5t9.5 22.5zm0-256v64q0 13-9.5 22.5t-22.5 9.5h-64q-13 0-22.5-9.5t-9.5-22.5v-64q0-13 9.5-22.5t22.5-9.5h64q13 0 22.5 9.5t9.5 22.5zm0-256v64q0 13-9.5 22.5t-22.5 9.5h-64q-13 0-22.5-9.5t-9.5-22.5v-64q0-13 9.5-22.5t22.5-9.5h64q13 0 22.5 9.5t9.5 22.5zm1152 512v64q0 13-9.5 22.5t-22.5 9.5h-960q-13 0-22.5-9.5t-9.5-22.5v-64q0-13 9.5-22.5t22.5-9.5h960q13 0 22.5 9.5t9.5 22.5zm0-256v64q0 13-9.5 22.5t-22.5 9.5h-960q-13 0-22.5-9.5t-9.5-22.5v-64q0-13 9.5-22.5t22.5-9.5h960q13 0 22.5 9.5t9.5 22.5zm0-256v64q0 13-9.5 22.5t-22.5 9.5h-960q-13 0-22.5-9.5t-9.5-22.5v-64q0-13 9.5-22.5t22.5-9.5h960q13 0 22.5 9.5t9.5 22.5zm128 704v-832q0-13-9.5-22.5t-22.5-9.5h-1472q-13 0-22.5 9.5t-9.5 22.5v832q0 13 9.5 22.5t22.5 9.5h1472q13 0 22.5-9.5t9.5-22.5zm128-1088v1088q0 66-47 113t-113 47h-1472q-66 0-113-47t-47-113v-1088q0-66 47-113t113-47h1472q66 0 113 47t47 113z"/></symbol><symbol viewBox="0 0 16 16" id="reply"><title>reply</title>  <g> <path d="M12,4H4C2.9,4,2,4.9,2,6v8l2.4-2.4C4.8,11.2,5.3,11,5.8,11H12c1.1,0,2-0.9,2-2V6C14,4.9,13.1,4,12,4z"/> </g> </symbol><symbol viewBox="0 0 16 16" id="repost"><title>repost</title> <path d="M12,6h-2v2h2v4H4V8h2V6H4C2.9,6,2,6.9,2,8v4c0,1.1,0.9,2,2,2h8c1.1,0,2-0.9,2-2V8C14,6.9,13.1,6,12,6z M7,4.4V10h2V4.4
	l1.1,1.1l1.4-1.4L8,0.6L4.5,4.1l1.4,1.4L7,4.4z"/> </symbol><symbol viewBox="0 0 1792 1792" id="rsvp"><title>rsvp</title><path d="M1303 964l-512 512q-10 9-23 9t-23-9l-288-288q-9-10-9-23t9-22l46-46q9-9 22-9t23 9l220 220 444-444q10-9 23-9t22 9l46 46q9 9 9 22t-9 23zm-1175 700h1408v-1024h-1408v1024zm384-1216v-288q0-14-9-23t-23-9h-64q-14 0-23 9t-9 23v288q0 14 9 23t23 9h64q14 0 23-9t9-23zm768 0v-288q0-14-9-23t-23-9h-64q-14 0-23 9t-9 23v288q0 14 9 23t23 9h64q14 0 23-9t9-23zm384-64v1280q0 52-38 90t-90 38h-1408q-52 0-90-38t-38-90v-1280q0-52 38-90t90-38h128v-96q0-66 47-113t113-47h64q66 0 113 47t47 113v96h384v-96q0-66 47-113t113-47h64q66 0 113 47t47 113v96h128q52 0 90 38t38 90z"/></symbol><symbol viewBox="0 0 16 16" id="tag"><title>tag</title> <path d="M11.3,4.3C11.1,4.1,10.9,4,10.6,4H3C2.5,4,2,4.5,2,5v6c0,0.6,0.5,1,1,1h7.6c0.3,0,0.5-0.1,0.7-0.3L15,8L11.3,4.3z M10,9
	C9.5,9,9,8.5,9,8s0.5-1,1-1s1,0.5,1,1S10.5,9,10,9z"/> </symbol><symbol viewBox="0 0 1792 1792" id="trip"><title>trip</title><path d="M640 384h512v-128h-512v128zm-352 0v1280h-64q-92 0-158-66t-66-158v-832q0-92 66-158t158-66h64zm1120 0v1280h-1024v-1280h128v-160q0-40 28-68t68-28h576q40 0 68 28t28 68v160h128zm384 224v832q0 92-66 158t-158 66h-64v-1280h64q92 0 158 66t66 158z"/></symbol><symbol viewBox="0 0 16 16" id="watch"><title>watch</title> <path d="M12,4v1h-1V4H5v1H4V4H2v9h2v-1h1v1h6v-1h1v1h2V4H12z M5,11H4v-1h1V11z M5,9H4V8h1V9z M5,7H4V6h1V7z M12,11h-1v-1h1V11z
	 M12,9h-1V8h1V9z M12,7h-1V6h1V7z"/> </symbol><symbol viewBox="0 0 1792 1792" id="weather"><title>weather</title><path d="M1472 896q0-117-45.5-223.5t-123-184-184-123-223.5-45.5-223.5 45.5-184 123-123 184-45.5 223.5 45.5 223.5 123 184 184 123 223.5 45.5 223.5-45.5 184-123 123-184 45.5-223.5zm276 277q-4 15-20 20l-292 96v306q0 16-13 26-15 10-29 4l-292-94-180 248q-10 13-26 13t-26-13l-180-248-292 94q-14 6-29-4-13-10-13-26v-306l-292-96q-16-5-20-20-5-17 4-29l180-248-180-248q-9-13-4-29 4-15 20-20l292-96v-306q0-16 13-26 15-10 29-4l292 94 180-248q9-12 26-12t26 12l180 248 292-94q14-6 29 4 13 10 13 26v306l292 96q16 5 20 20 5 16-4 29l-180 248 180 248q9 12 4 29z"/></symbol><symbol viewBox="0 0 16 16" id="wish"><title>wish</title> <path d="M11,12c-0.6,0-1,0.4-1,1s0.4,1,1,1s1-0.4,1-1S11.6,12,11,12z M5,12c-0.6,0-1,0.4-1,1s0.4,1,1,1s1-0.4,1-1
	S5.6,12,5,12z M11,10H5V9h5.6c0.8,0,1.5-0.5,1.9-1.3L14,4H5V3c0-0.6-0.4-1-1-1H2v1h2v7c0,0.6,0.4,1,1,1h6h1C12,10.4,11.6,10,11,10z"/> </symbol></svg>