<svg viewBox="0 0 24 24" xmlns="http://www.w3.org/2000/svg"><symbol viewBox="0 0 16 16" id="article"><title>article</title> <path d="M11,2H5C3.9,2,3,2.9,3,4v8c0,1.1,0.9,2,2,2h5l3-3V4C13,2.9,12.1,2,11,2z M11,9h-1c-1.1,0-2,0.9-2,2v1H5V4h6V9z"/> <rect x="6" y="5" width="4" height="1"/> <rect x="6" y="7" width="2" height="1"/> </symbol><symbol viewBox="0 0 16 16" id="audio"><title>audio</title> <path d="M7.3,2.7L4,6H2v4h2l3.3,3.3C7.9,13.9,9,13.5,9,12.6V3.4C9,2.5,7.9,2.1,7.3,2.7z M13,3l-0.7,0.7C13.3,4.8,14,6.3,14,8
	s-0.7,3.2-1.8,4.2l0.7,0.7c1.3-1.3,2.1-3,2.1-5C15,6,14.2,4.3,13,3z M11.5,4.5l-0.7,0.7C11.6,5.9,12,6.9,12,8s-0.5,2.1-1.2,2.8
	l0.7,0.7C12.4,10.6,13,9.4,13,8S12.4,5.4,11.5,4.5z"/> </symbol><symbol viewBox="0 0 1792 1792" id="bookmark"><title>bookmark</title> <path d="M1420 128q23 0 44 9 33 13 52.5 41t19.5 62v1289q0 34-19.5 62t-52.5 41q-19 8-44 8-48 0-83-32l-441-424-441 424q-36 33-83 33-23 0-44-9-33-13-52.5-41t-19.5-62v-1289q0-34 19.5-62t52.5-41q21-9 44-9h1048z"/></symbol><symbol viewBox="0 0 16 16" id="checkin"><title>checkin</title> <path d="M11.5,3.5c-2-2-5.1-2-7.1,0c-2,2-2,5.1,0,7.1L8,14.1l3.5-3.5C13.5,8.6,13.5,5.4,11.5,3.5z M9.4,8.4c-0.8,0.8-2,0.8-2.8,0
	c-0.8-0.8-0.8-2,0-2.8c0.8-0.8,2-0.8,2.8,0C10.2,6.4,10.2,7.6,9.4,8.4z"/> </symbol><symbol viewBox="0 0 1792 1792" id="drink"><title>drink</title><path d="M1600 640q0-80-56-136t-136-56h-64v384h64q80 0 136-56t56-136zm-1664 768h1792q0 106-75 181t-181 75h-1280q-106 0-181-75t-75-181zm1856-768q0 159-112.5 271.5t-271.5 112.5h-64v32q0 92-66 158t-158 66h-704q-92 0-158-66t-66-158v-736q0-26 19-45t45-19h1152q159 0 271.5 112.5t112.5 271.5z"/></symbol><symbol viewBox="0 0 16 16" id="event"><title>event</title> <path d="M12,3h-1V2H9v1H7V2H5v1H4C2.9,3,2,3.9,2,5v6c0,1.1,0.9,2,2,2h8c1.1,0,2-0.9,2-2V5C14,3.9,13.1,3,12,3z M9,11H8V6.2L7.2,6.5
	L6.8,5.5L9,4.8V11z"/> </symbol><symbol viewBox="0 0 16 16" id="exercise"><title>exercise</title> <style type="text/css"> .st0{fill:#231F20;} </style> <path class="st0" d="M10,11.8L8.5,7.7l-1.6,3.7c-0.3,0.8-1.4,0.8-1.8,0.1L3.9,9l-1.1,1.6L1.2,9.4l2-3c0.4-0.6,1.4-0.6,1.7,0.1l1,2.1
	l1.7-4c0.3-0.8,1.5-0.8,1.8,0l1.6,4l2.1-5.9l1.8,0.6l-3,8.5C11.6,12.7,10.4,12.7,10,11.8z"/> </symbol><symbol viewBox="0 0 16 16" id="favorite"><title>favorite</title> <polygon points="8,1.3 10,5.9 15,6.4 11.3,9.8 12.3,14.7 8,12.2 3.7,14.7 4.7,9.8 1,6.4 6,5.9 "/> </symbol><symbol viewBox="0 0 1792 1792" id="food"><title>food</title><path d="M832 64v640q0 61-35.5 111t-92.5 70v779q0 52-38 90t-90 38h-128q-52 0-90-38t-38-90v-779q-57-20-92.5-70t-35.5-111v-640q0-26 19-45t45-19 45 19 19 45v416q0 26 19 45t45 19 45-19 19-45v-416q0-26 19-45t45-19 45 19 19 45v416q0 26 19 45t45 19 45-19 19-45v-416q0-26 19-45t45-19 45 19 19 45zm768 0v1600q0 52-38 90t-90 38h-128q-52 0-90-38t-38-90v-512h-224q-13 0-22.5-9.5t-9.5-22.5v-800q0-132 94-226t226-94h256q26 0 45 19t19 45z"/></symbol><symbol viewBox="0 0 16 16" id="issue"><title>issue</title>  <path d="M8,2C4.7,2,2,4.7,2,8s2.7,6,6,6s6-2.7,6-6S11.3,2,8,2z M8,12c-0.6,0-1-0.4-1-1s0.4-1,1-1s1,0.4,1,1S8.6,12,8,12z M8.8,9H7.2
	L7,4h2L8.8,9z"/> </symbol><symbol viewBox="0 0 1792 1792" id="itinerary"><title>itinerary</title><path d="M640 384h512v-128h-512v128zm-352 0v1280h-64q-92 0-158-66t-66-158v-832q0-92 66-158t158-66h64zm1120 0v1280h-1024v-1280h128v-160q0-40 28-68t68-28h576q40 0 68 28t28 68v160h128zm384 224v832q0 92-66 158t-158 66h-64v-1280h64q92 0 158 66t66 158z"/></symbol><symbol viewBox="0 0 1792 1792" id="jam"><title>jam</title><path d="M1664 224v1120q0 50-34 89t-86 60.5-103.5 32-96.5 10.5-96.5-10.5-103.5-32-86-60.5-34-89 34-89 86-60.5 103.5-32 96.5-10.5q105 0 192 39v-537l-768 237v709q0 50-34 89t-86 60.5-103.5 32-96.5 10.5-96.5-10.5-103.5-32-86-60.5-34-89 34-89 86-60.5 103.5-32 96.5-10.5q105 0 192 39v-967q0-31 19-56.5t49-35.5l832-256q12-4 28-4 40 0 68 28t28 68z"/></symbol><symbol viewBox="0 0 16 16" id="like"><title>like</title> <path d="M8,13L2.9,8.2C1.8,7.1,1.7,5.2,2.7,4c1-1.2,2.8-1.3,4-0.2L8,5l1.3-1.2c1.2-1.1,3-1,4,0.2c1.1,1.2,1,3.1-0.2,4.2L8,13z"/> </symbol><symbol viewBox="0 0 1792 1792" id="listen"><title>listen</title><path d="M1728 886q0 166-60 314l-20 49-185 33q-22 83-90.5 136.5t-156.5 53.5v32q0 14-9 23t-23 9h-64q-14 0-23-9t-9-23v-576q0-14 9-23t23-9h64q14 0 23 9t9 23v32q71 0 130 35.5t93 95.5l68-12q29-95 29-193 0-148-88-279t-236.5-209-315.5-78-315.5 78-236.5 209-88 279q0 98 29 193l68 12q34-60 93-95.5t130-35.5v-32q0-14 9-23t23-9h64q14 0 23 9t9 23v576q0 14-9 23t-23 9h-64q-14 0-23-9t-9-23v-32q-88 0-156.5-53.5t-90.5-136.5l-185-33-20-49q-60-148-60-314 0-151 67-291t179-242.5 266-163.5 320-61 320 61 266 163.5 179 242.5 67 291z"/></symbol><symbol viewBox="0 0 24 24" id="mood"><title>mood</title> <path d="M 11.60448,2.4538269 C 10.759228,2.6291641 10.184968,3.0505958 9.8099323,3.4459747 9.4348963,3.8413536 9.1780054,4.2222913 8.8258253,4.5243963 8.3554475,4.9278928 7.8057172,5.2298672 7.2628318,5.6243863 6.7199464,6.0189054 6.2077578,6.5262279 5.9603372,7.2420187 5.7414856,7.8751588 5.9488504,8.4415059 6.2208361,8.8812195 c 0.2719857,0.4397136 0.5775404,0.8079367 0.7525525,1.1862635 0.2337489,0.5053 0.3049917,1.005324 0.4920535,1.552927 0.1870617,0.547603 0.5074902,1.143204 1.2156616,1.66077 0.6264004,0.457802 1.4080253,0.602718 2.0550473,0.647052 0.647021,0.04434 1.209467,0.03162 1.736659,0.107843 0.704127,0.101803 1.3251,0.299853 2.055047,0.452937 0.729947,0.153084 1.591509,0.241363 2.547101,0.04314 0.845252,-0.175338 1.419512,-0.59677 1.794548,-0.992148 0.375036,-0.395379 0.631927,-0.776317 0.984107,-1.078422 0.470378,-0.403496 1.020108,-0.705471 1.562993,-1.09999 C 21.959491,10.96707 22.47168,10.459747 22.719101,9.7439567 22.937952,9.1108166 22.730588,8.5444695 22.458602,8.104756 22.186616,7.6650424 21.881061,7.2968192 21.706049,6.9184922 21.472301,6.4131923 21.401058,5.9131681 21.213996,5.3655651 21.026934,4.8179622 20.706506,4.2223607 19.998334,3.7047959 19.371934,3.2469931 18.590309,3.1020777 17.943287,3.057743 17.296266,3.0134083 16.73382,3.0261228 16.206628,2.9499008 15.502501,2.8480975 14.881528,2.6500476 14.151581,2.4969637 13.421634,2.3438799 12.560072,2.2556009 11.60448,2.4538269 z"/> <path d="m 11.66545,15.517255 c -0.316994,-0.06175 -0.601266,-0.02433 -0.837785,0.03847 -0.236519,0.0628 -0.431149,0.138381 -0.638312,0.192334 -0.152906,0.03982 -0.3186888,0.06222 -0.5266071,0.1154 -0.2079183,0.05318 -0.4598073,0.164451 -0.6542697,0.376974 -0.179355,0.196012 -0.260855,0.40124 -0.3271349,0.60008 -0.012787,0.03836 -0.053828,0.07838 -0.063831,0.1154 -0.061854,0.228901 -0.088498,0.43089 -0.1436202,0.630854 -0.040686,0.147593 -0.1113664,0.299856 -0.1675568,0.500067 -0.05619,0.20021 -0.077693,0.462223 0.015958,0.730867 0.1030381,0.295573 0.2801322,0.518606 0.4547972,0.684707 0.174665,0.1661 0.3426513,0.292509 0.4946917,0.43852 0.112221,0.10777 0.2073227,0.237641 0.3590505,0.384667 0.1517278,0.147026 0.3821143,0.305466 0.6702273,0.361587 0.316994,0.06175 0.601265,0.02433 0.837784,-0.03847 0.236519,-0.0628 0.431149,-0.146074 0.638312,-0.200027 0.152907,-0.03982 0.318689,-0.05452 0.526607,-0.107706 0.207919,-0.05318 0.459808,-0.164451 0.65427,-0.376974 0.213956,-0.233826 0.329112,-0.494273 0.390966,-0.723174 0.06185,-0.228901 0.0885,-0.423196 0.14362,-0.62316 0.04069,-0.147593 0.111367,-0.299857 0.167557,-0.500067 0.05619,-0.20021 0.07769,-0.469917 -0.01596,-0.73856 -0.103039,-0.295573 -0.280133,-0.510914 -0.454798,-0.677014 -0.151222,-0.143807 -0.29593,-0.255218 -0.43086,-0.376974 l -0.06383,-0.06155 C 12.582507,16.155738 12.487405,16.025868 12.335677,15.878842 12.183949,15.731816 11.953562,15.573376 11.66545,15.517255 z"/> <path d="m 5.6312267,19.238975 c -0.1033199,0.0057 -0.2020645,0.01845 -0.28422,0.03656 -0.164311,0.03621 -0.2812474,0.07974 -0.4009532,0.105616 -0.082497,0.01783 -0.1908991,0.0252 -0.3400489,0.05687 -0.1491498,0.03167 -0.3447377,0.105795 -0.4923097,0.239668 -0.1057417,0.09593 -0.1693515,0.197237 -0.2182403,0.296538 -0.022827,0.04637 -0.052302,0.09204 -0.06598,0.134051 -0.04297,0.131998 -0.059505,0.237185 -0.091356,0.333098 -0.021951,0.0661 -0.061199,0.144824 -0.1015071,0.26404 -0.040308,0.119217 -0.065993,0.293862 0.00508,0.463087 0.074701,0.177874 0.2085575,0.314495 0.3298982,0.410278 0.1213407,0.09578 0.226818,0.157448 0.3146722,0.227482 0.060546,0.04826 0.1246248,0.119623 0.2334664,0.20717 0.1088417,0.08755 0.2838199,0.188067 0.5024604,0.223419 0.2298156,0.03716 0.4498072,0.0159 0.6141182,-0.02031 0.164311,-0.03621 0.2812475,-0.07974 0.4009532,-0.105616 0.082497,-0.01784 0.1908992,-0.0252 0.3400489,-0.05687 0.1491498,-0.03167 0.3447378,-0.105795 0.4923097,-0.239668 0.1551146,-0.140715 0.2412497,-0.302654 0.28422,-0.434652 0.04297,-0.131997 0.05443,-0.233123 0.086281,-0.329035 0.021951,-0.0661 0.066274,-0.144824 0.1065825,-0.26404 0.040308,-0.119217 0.060918,-0.293863 -0.010151,-0.463087 C 7.2618458,20.145699 7.1330646,20.009078 7.0117239,19.913294 6.8903832,19.817511 6.7849059,19.755847 6.6970517,19.685813 6.6365059,19.637549 6.572427,19.56619 6.4635853,19.478643 6.3547437,19.391095 6.1797654,19.290576 5.961125,19.255224 5.8462172,19.236645 5.7345467,19.233298 5.6312267,19.238975 z"/> </symbol><symbol viewBox="0 0 16 16" id="note"><title>note</title> <path d="M11,3H5C3.9,3,3,3.9,3,5v6c0,1.1,0.9,2,2,2h5l3-3V5C13,3.9,12.1,3,11,3z M11,8h-1c-1.1,0-2,0.9-2,2v1H5V5h6V8z"/> </symbol><symbol viewBox="0 0 16 16" id="photo"><title>photo</title> <path d="M13,5h-2l-1-2H6L5,5H3C2.4,5,2,5.4,2,6v6c0,0.5,0.4,1,1,1h10c0.5,0,1-0.4,1-1V6C14,5.4,13.6,5,13,5z M8,12c-1.7,0-3-1.3-3-3
	s1.3-3,3-3s3,1.3,3,3S9.7,12,8,12z M8,7C6.9,7,6,7.9,6,9s0.9,2,2,2s2-0.9,2-2S9.1,7,8,7z"/> </symbol><symbol viewBox="0 0 1792 1792" id="play"><title>play</title><path d="M768 1088v-128q0-14-9-23t-23-9h-192v-192q0-14-9-23t-23-9h-128q-14 0-23 9t-9 23v192h-192q-14 0-23 9t-9 23v128q0 14 9 23t23 9h192v192q0 14 9 23t23 9h128q14 0 23-9t9-23v-192h192q14 0 23-9t9-23zm576 64q0-53-37.5-90.5t-90.5-37.5-90.5 37.5-37.5 90.5 37.5 90.5 90.5 37.5 90.5-37.5 37.5-90.5zm256-256q0-53-37.5-90.5t-90.5-37.5-90.5 37.5-37.5 90.5 37.5 90.5 90.5 37.5 90.5-37.5 37.5-90.5zm256 128q0 212-150 362t-362 150q-192 0-338-128h-220q-146 128-338 128-212 0-362-150t-150-362 150-362 362-150h896q212 0 362 150t150 362z"/></symbol><symbol viewBox="0 0 16 16" id="quote"><title>quote</title> <path d="M2,9h3c0,1.1-0.9,2-2,2v2c2.2,0,4-1.8,4-4V4H2V9z M9,4v5h3c0,1.1-0.9,2-2,2v2c2.2,0,4-1.8,4-4V4H9z"/> </symbol><symbol viewBox="0 0 16 16" id="read"><title>read</title> <path d="M11,2H7v7L6,8L5,9V2H3v12h8c1.1,0,2-0.9,2-2V4C13,2.9,12.1,2,11,2z"/> </symbol><symbol viewBox="0 0 1792 1792" id="recipe"><title>recipe</title><path d="M384 1184v64q0 13-9.5 22.5t-22.5 9.5h-64q-13 0-22.5-9.5t-9.5-22.5v-64q0-13 9.5-22.5t22.5-9.5h64q13 0 22.5 9.5t9.5 22.5zm0-256v64q0 13-9.5 22.5t-22.5 9.5h-64q-13 0-22.5-9.5t-9.5-22.5v-64q0-13 9.5-22.5t22.5-9.5h64q13 0 22.5 9.5t9.5 22.5zm0-256v64q0 13-9.5 22.5t-22.5 9.5h-64q-13 0-22.5-9.5t-9.5-22.5v-64q0-13 9.5-22.5t22.5-9.5h64q13 0 22.5 9.5t9.5 22.5zm1152 512v64q0 13-9.5 22.5t-22.5 9.5h-960q-13 0-22.5-9.5t-9.5-22.5v-64q0-13 9.5-22.5t22.5-9.5h960q13 0 22.5 9.5t9.5 22.5zm0-256v64q0 13-9.5 22.5t-22.5 9.5h-960q-13 0-22.5-9.5t-9.5-22.5v-64q0-13 9.5-22.5t22.5-9.5h960q13 0 22.5 9.5t9.5 22.5zm0-256v64q0 13-9.5 22.5t-22.5 9.5h-960q-13 0-22.5-9.5t-9.5-22.5v-64q0-13 9.5-22.5t22.5-9.5h960q13 0 22.5 9.5t9.5 22.5zm128 704v-832q0-13-9.5-22.5t-22.5-9.5h-1472q-13 0-22.5 9.5t-9.5 22.5v832q0 13 9.5 22.5t22.5 9.5h1472q13 0 22.5-9.5t9.5-22.5zm128-1088v1088q0 66-47 113t-113 47h-1472q-66 0-113-47t-47-113v-1088q0-66 47-113t113-47h1472q66 0 113 47t47 113z"/></symbol><symbol viewBox="0 0 16 16" id="reply"><title>reply</title>  <g> <path d="M12,4H4C2.9,4,2,4.9,2,6v8l2.4-2.4C4.8,11.2,5.3,11,5.8,11H12c1.1,0,2-0.9,2-2V6C14,4.9,13.1,4,12,4z"/> </g> </symbol><symbol viewBox="0 0 16 16" id="repost"><title>repost</title> <path d="M12,6h-2v2h2v4H4V8h2V6H4C2.9,6,2,6.9,2,8v4c0,1.1,0.9,2,2,2h8c1.1,0,2-0.9,2-2V8C14,6.9,13.1,6,12,6z M7,4.4V10h2V4.4
	l1.1,1.1l1.4-1.4L8,0.6L4.5,4.1l1.4,1.4L7,4.4z"/> </symbol><symbol viewBox="0 0 1792 1792" id="rsvp"><title>rsvp</title><path d="M1303 964l-512 512q-10 9-23 9t-23-9l-288-288q-9-10-9-23t9-22l46-46q9-9 22-9t23 9l220 220 444-444q10-9 23-9t22 9l46 46q9 9 9 22t-9 23zm-1175 700h1408v-1024h-1408v1024zm384-1216v-288q0-14-9-23t-23-9h-64q-14 0-23 9t-9 23v288q0 14 9 23t23 9h64q14 0 23-9t9-23zm768 0v-288q0-14-9-23t-23-9h-64q-14 0-23 9t-9 23v288q0 14 9 23t23 9h64q14 0 23-9t9-23zm384-64v1280q0 52-38 90t-90 38h-1408q-52 0-90-38t-38-90v-1280q0-52 38-90t90-38h128v-96q0-66 47-113t113-47h64q66 0 113 47t47 113v96h384v-96q0-66 47-113t113-47h64q66 0 113 47t47 113v96h128q52 0 90 38t38 90z"/></symbol><symbol viewBox="0 0 16 16" id="tag"><title>tag</title> <path d="M11.3,4.3C11.1,4.1,10.9,4,10.6,4H3C2.5,4,2,4.5,2,5v6c0,0.6,0.5,1,1,1h7.6c0.3,0,0.5-0.1,0.7-0.3L15,8L11.3,4.3z M10,9
	C9.5,9,9,8.5,9,8s0.5-1,1-1s1,0.5,1,1S10.5,9,10,9z"/> </symbol><symbol viewBox="0 0 1792 1792" id="trip"><title>trip</title><path d="M640 384h512v-128h-512v128zm-352 0v1280h-64q-92 0-158-66t-66-158v-832q0-92 66-158t158-66h64zm1120 0v1280h-1024v-1280h128v-160q0-40 28-68t68-28h576q40 0 68 28t28 68v160h128zm384 224v832q0 92-66 158t-158 66h-64v-1280h64q92 0 158 66t66 158z"/></symbol><symbol viewBox="0 0 16 16" id="video"><title>video</title> <path d="M12,4v1h-1V4H5v1H4V4H2v9h2v-1h1v1h6v-1h1v1h2V4H12z M5,11H4v-1h1V11z M5,9H4V8h1V9z M5,7H4V6h1V7z M12,11h-1v-1h1V11z
	 M12,9h-1V8h1V9z M12,7h-1V6h1V7z"/> </symbol><symbol viewBox="0 0 16 16" id="watch"><title>watch</title> <path d="M3,12.2V3.8C3,3,3.8,2.5,4.5,2.9l7.1,4.2c0.6,0.4,0.6,1.3,0,1.7l-7.1,4.2C3.8,13.5,3,13,3,12.2z"/> </symbol><symbol viewBox="0 0 1792 1792" id="weather"><title>weather</title><path d="M1472 896q0-117-45.5-223.5t-123-184-184-123-223.5-45.5-223.5 45.5-184 123-123 184-45.5 223.5 45.5 223.5 123 184 184 123 223.5 45.5 223.5-45.5 184-123 123-184 45.5-223.5zm276 277q-4 15-20 20l-292 96v306q0 16-13 26-15 10-29 4l-292-94-180 248q-10 13-26 13t-26-13l-180-248-292 94q-14 6-29-4-13-10-13-26v-306l-292-96q-16-5-20-20-5-17 4-29l180-248-180-248q-9-13-4-29 4-15 20-20l292-96v-306q0-16 13-26 15-10 29-4l292 94 180-248q9-12 26-12t26 12l180 248 292-94q14-6 29 4 13 10 13 26v306l292 96q16 5 20 20 5 16-4 29l-180 248 180 248q9 12 4 29z"/></symbol><symbol viewBox="0 0 16 16" id="wish"><title>wish</title> <path d="M11,12c-0.6,0-1,0.4-1,1s0.4,1,1,1s1-0.4,1-1S11.6,12,11,12z M5,12c-0.6,0-1,0.4-1,1s0.4,1,1,1s1-0.4,1-1
	S5.6,12,5,12z M11,10H5V9h5.6c0.8,0,1.5-0.5,1.9-1.3L14,4H5V3c0-0.6-0.4-1-1-1H2v1h2v7c0,0.6,0.4,1,1,1h6h1C12,10.4,11.6,10,11,10z"/> </symbol></svg>